<?xml version="1.0" standalone="no"?>
<!DOCTYPE svg PUBLIC "-//W3C//DTD SVG 20010904//EN"
 "http://www.w3.org/TR/2001/REC-SVG-20010904/DTD/svg10.dtd">
<svg version="1.0" xmlns="http://www.w3.org/2000/svg"
 width="2250.000000pt" height="2250.000000pt" viewBox="0 0 2250.000000 2250.000000"
 preserveAspectRatio="xMidYMid meet">

<g transform="translate(0.000000,2250.000000) scale(0.100000,-0.100000)"
fill="#000000" stroke="none">
<path d="M0 11250 l0 -11250 11250 0 11250 0 0 11250 0 11250 -11250 0 -11250
0 0 -11250z m7463 4128 c572 -1308 1043 -2378 1046 -2378 3 0 90 193 193 428
705 1615 1891 4318 1897 4325 4 4 152 6 328 5 l321 -3 -2277 -5200 -2277
-5200 -322 -3 c-250 -2 -322 0 -322 10 0 7 511 1179 1135 2604 l1135 2591
-1121 2559 c-616 1408 -1129 2578 -1139 2602 l-19 42 190 -2 190 -3 1042
-2377z m8918 2205 c-43 -98 -1035 -2363 -2204 -5034 -1170 -2671 -2127 -4859
-2127 -4862 0 -4 981 -7 2180 -7 1199 0 2180 -2 2180 -5 0 -3 -32 -77 -71
-165 l-71 -160 -2510 0 c-2004 0 -2509 3 -2505 13 3 6 995 2273 2206 5036
1210 2764 2199 5026 2197 5028 -1 2 -910 3 -2019 3 -1444 0 -2017 3 -2017 11
0 10 108 257 131 302 9 16 132 17 2359 17 l2349 0 -78 -177z m-5430 -11215
c-5 -13 -25 -58 -44 -100 l-36 -78 -70 0 -70 0 26 58 c14 31 34 76 44 100 l18
42 70 0 c69 0 70 0 62 -22z m-4072 -324 c81 -18 201 -81 266 -139 l50 -44 -52
-52 -51 -52 -46 40 c-236 208 -603 166 -766 -87 -58 -90 -83 -181 -84 -300 -1
-126 23 -215 82 -305 172 -265 515 -308 768 -97 l61 50 47 -47 47 -48 -43 -39
c-99 -91 -198 -143 -321 -168 -305 -63 -596 73 -725 339 -177 363 -3 813 363
935 124 41 265 46 404 14z m7768 1 c34 -8 93 -30 130 -49 67 -34 183 -119 183
-134 0 -4 -22 -29 -49 -56 l-49 -48 -56 46 c-107 87 -214 126 -346 126 -136 0
-249 -47 -345 -144 -272 -272 -166 -761 191 -887 71 -25 203 -30 284 -10 71
17 154 61 228 121 l60 48 46 -47 46 -47 -32 -31 c-101 -95 -206 -152 -331
-177 -271 -56 -537 46 -681 263 -205 309 -125 740 174 940 151 101 349 132
547 86z m-6197 -60 l0 -65 -405 0 -405 0 0 -220 0 -220 355 0 355 0 0 -70 0
-70 -355 0 -355 0 0 -225 0 -225 405 0 405 0 0 -70 0 -70 -475 0 -475 0 0 650
0 650 475 0 475 0 0 -65z m1065 50 c172 -45 277 -149 305 -305 14 -77 1 -170
-35 -239 -45 -90 -165 -177 -269 -197 -25 -4 -36 -11 -32 -20 3 -7 88 -122
189 -256 101 -134 187 -249 191 -255 5 -10 -13 -13 -82 -13 l-90 0 -191 255
-191 255 -185 0 -185 0 0 -255 0 -255 -75 0 -75 0 0 650 0 650 333 0 c266 0
345 -3 392 -15z m1588 -628 c158 -353 287 -646 287 -650 0 -4 -33 -7 -73 -7
l-74 0 -74 170 -74 170 -350 0 -351 0 -73 -166 c-41 -91 -79 -168 -86 -170 -7
-3 -40 -4 -73 -2 l-61 3 265 595 c146 327 276 619 289 648 l24 52 69 0 69 0
286 -643z m919 298 c126 -187 232 -343 237 -348 4 -4 113 150 242 342 l234
350 78 1 77 0 0 -650 0 -650 -75 0 -75 0 -2 523 -3 523 -234 -343 c-129 -189
-237 -343 -240 -343 -3 1 -112 156 -241 345 l-235 344 -3 -524 -2 -525 -70 0
-70 0 0 650 0 651 76 -3 77 -3 229 -340z m1428 -305 l0 -650 -75 0 -75 0 0
650 0 650 75 0 75 0 0 -650z m2720 0 l288 -645 -66 -3 c-36 -2 -70 -1 -77 1
-6 3 -44 80 -84 171 l-73 166 -351 -2 -350 -3 -75 -167 -74 -168 -69 0 c-38 0
-69 4 -69 9 0 5 124 288 276 628 152 340 280 628 285 641 8 21 14 23 80 20
l72 -3 287 -645z"/>
<path d="M8940 5656 l0 -266 228 0 c248 0 309 9 390 56 148 87 159 308 20 410
-67 50 -114 57 -385 62 l-253 4 0 -266z"/>
<path d="M10602 5558 c-79 -176 -141 -322 -139 -325 7 -7 567 -9 567 -2 0 7
-278 640 -283 646 -2 1 -67 -142 -145 -319z"/>
<path d="M15662 5553 l-141 -318 281 -3 c155 -1 283 0 286 3 6 6 -270 635
-279 635 -3 0 -69 -143 -147 -317z"/>
</g>
</svg>
